<?xml version="1.0" encoding="UTF-8"?>
<svg id="Layer_2" data-name="Layer 2" xmlns="http://www.w3.org/2000/svg" viewBox="0 0 245 225.41">
  <defs>
    <style>
      .cls-1 {
        fill: #a67c52;
      }

      .cls-1, .cls-2, .cls-3, .cls-4 {
        stroke-width: 0px;
      }

      .cls-2 {
        fill: #000;
      }

      .cls-3 {
        fill: #8cc63f;
      }

      .cls-5 {
        fill: #fbb03b;
        stroke: #000;
        stroke-miterlimit: 10;
        stroke-width: 5px;
      }

      .cls-4 {
        fill: #603813;
      }
    </style>
  </defs>
  <g id="Layer_1-2" data-name="Layer 1">
    <g>
      <g>
        <path class="cls-1" d="M25,222.91c-12.41,0-22.5-10.09-22.5-22.5v-67.65c4.21,1.4,9.27,2.15,14.65,2.15,9.98,0,20.53-2.71,25.22-8.52,4.58,5.66,14.81,8.27,24.97,8.27s20.44-2.62,25-8.32c4.74,5.7,15.39,8.32,25.97,8.32s21.34-2.65,26.04-8.4c4.79,5.76,15.69,8.4,26.53,8.4s21.79-2.66,26.56-8.44c4.9,5.93,16.18,8.69,26.85,8.69,6.95,0,13.34-1.11,18.21-3.11v68.61c0,12.41-10.09,22.5-22.5,22.5H25Z"/>
        <path class="cls-2" d="M144.38,129.77c5.92,5.05,16.24,7.39,26.51,7.39s20.56-2.34,26.49-7.37c5.95,5.21,16.47,7.63,26.92,7.63,5.73,0,11.13-.74,15.71-2.1v65.1c0,11.03-8.97,20-20,20H25c-11.03,0-20-8.97-20-20v-64.35c3.7.88,7.84,1.35,12.15,1.35,9.77,0,19.6-2.35,25.29-7.4,5.66,4.88,15.31,7.15,24.89,7.15s19.4-2.31,25.04-7.28c5.84,4.97,15.92,7.28,25.93,7.28s20.24-2.34,26.06-7.39M197.43,119.41c0,8.5-13.27,12.75-26.55,12.75s-26.55-4.25-26.55-12.75c0,8.5-13.01,12.75-26.02,12.75s-26.02-4.25-26.02-12.75c0,8.5-12.48,12.75-24.96,12.75s-24.96-4.25-24.96-12.75c0,8.62-12.71,13-25.23,13-6.32,0-12.58-1.11-17.15-3.36v71.35c0,13.81,11.19,25,25,25h195c13.81,0,25-11.19,25-25v-72.68c-4.9,3.13-12.77,4.69-20.71,4.69-13.33,0-26.86-4.38-26.86-13h0Z"/>
      </g>
      <g>
        <path class="cls-4" d="M224.29,136.92c-11.81,0-24.36-3.68-24.36-10.5h-5c0,6.66-12.39,10.25-24.05,10.25s-24.05-3.59-24.05-10.25h-5c0,6.66-12.12,10.25-23.52,10.25s-23.52-3.59-23.52-10.25h-5c0,6.66-11.57,10.25-22.46,10.25s-22.46-3.59-22.46-10.25h-5c0,6.82-11.71,10.5-22.73,10.5-5.5,0-10.74-.89-14.65-2.48v-5.02c0-12.41,10.09-22.5,22.5-22.5h195c12.41,0,22.5,10.09,22.5,22.5v3.88c-4.3,2.28-10.97,3.62-18.21,3.62h0Z"/>
        <path class="cls-2" d="M220,109.41c11.03,0,20,8.97,20,20v2.31c-3.93,1.71-9.58,2.69-15.71,2.69-12.88,0-21.86-4.22-21.86-8h-10c0,3.67-8.85,7.75-21.55,7.75s-21.55-4.08-21.55-7.75h-10c0,3.74-8.45,7.75-21.02,7.75s-21.02-4.01-21.02-7.75h-10c0,4.2-9.14,7.75-19.96,7.75s-19.96-3.55-19.96-7.75h-10c0,4.34-9.26,8-20.23,8-4.48,0-8.75-.62-12.15-1.72v-3.28c0-11.03,8.97-20,20-20h195M220,104.41H25c-13.81,0-25,11.19-25,25v6.65c4.57,2.24,10.84,3.36,17.15,3.36,12.52,0,25.23-4.38,25.23-13,0,8.5,12.48,12.75,24.96,12.75s24.96-4.25,24.96-12.75c0,8.5,13.01,12.75,26.02,12.75s26.02-4.25,26.02-12.75c0,8.5,13.27,12.75,26.55,12.75s26.55-4.25,26.55-12.75c0,8.62,13.53,13,26.86,13,7.94,0,15.81-1.55,20.71-4.69v-5.32c0-13.81-11.19-25-25-25h0Z"/>
      </g>
      <g>
        <rect class="cls-3" x="41.5" y="50.91" width="26" height="51"/>
        <path class="cls-2" d="M65,53.41v46h-21v-46h21M70,48.41h-31v56h31v-56h0Z"/>
      </g>
      <path class="cls-5" d="M54.5,48.91c-26,0,0-44,0-44,0,0,26,44,0,44Z"/>
      <g>
        <rect class="cls-3" x="177.5" y="50.91" width="26" height="51"/>
        <path class="cls-2" d="M201,53.41v46h-21v-46h21M206,48.41h-31v56h31v-56h0Z"/>
      </g>
      <path class="cls-5" d="M190.5,48.91c-26,0,0-44,0-44,0,0,26,44,0,44Z"/>
      <g>
        <rect class="cls-3" x="107.5" y="50.91" width="26" height="51"/>
        <path class="cls-2" d="M131,53.41v46h-21v-46h21M136,48.41h-31v56h31v-56h0Z"/>
      </g>
      <path class="cls-5" d="M120.5,48.91c-26,0,0-44,0-44,0,0,26,44,0,44Z"/>
    </g>
  </g>
</svg>