<?xml version="1.0" encoding="UTF-8"?>
<svg id="Layer_2" xmlns="http://www.w3.org/2000/svg" viewBox="0 0 349.16 276.55">
  <defs>
    <style>
      .cls-1 {
        fill: none;
      }

      .cls-1, .cls-2, .cls-3, .cls-4 {
        stroke: #000;
        stroke-miterlimit: 10;
      }

      .cls-2 {
        fill: #8cc63f;
      }

      .cls-3 {
        fill: #fff;
      }

      .cls-4 {
        fill: #009245;
      }
    </style>
  </defs>
  <g id="Layer_1-2" data-name="Layer_1">
    <g>
      <path class="cls-2" d="M161.46,210.54s-31.92-21.97-51.61-34.1c-7.15-4.4-15.04-7.96-23.03-10.53-10.29-3.3-13.35.84-16.01,7.55-8.53,21.52-21.31,39.92-41.24,52.53-3.33,2.11-29.12,16.55-18.42-4.35,3.64-7.11,23.99-53.1,27.31-61.1,6.55-15.78-28.46-57.01-36.57-71.17-1.16-2.02-1.95-6.02-.88-7.12,1.58-1.62,5.18-2.4,7.59-1.9,13.46,2.81,24.75,10.16,34.25,19.56,9.41,9.31,17.72,19.78,26.13,30.06,4.5,5.51,6.73,6.84,12.32,2.5,154.16-180.93,281.16-92.93,266.16,13.07-11.51,32.88-78.02,72.42-92,79-17,8-29.05,10.19-50,6-20-4-43.77-19.85-44-20Z"/>
      <path class="cls-4" d="M238.46,34.54c21.85-4.78-41.15-39.31-59.82-33.35-5.42,1.73-7.45,8.15-5.66,10.6,5.95,8.11,10.78,16.49,8.83,27.11-.5,2.71-2.35,9.64.65,8.64,10-7,39.28-9.35,56-13Z"/>
      <path class="cls-4" d="M250.46,226.54c-22.85,4.49-42.46,7.06-63-2,2.42,11.51-2.51,23.44-8.71,31.45-22.23,21.69,2.09,25.12,21.71,13.55,18-9,35.57-25.61,50-43Z"/>
      <g>
        <path class="cls-3" d="M267.14,15.78c-36.53-.08-66.09,29.53-66.04,66.16.05,36.21,29.74,66.02,65.79,66.06,36.29.04,66.09-29.47,66.22-65.57.13-37.16-28.98-66.57-65.97-66.65Z"/>
        <path d="M295.5,77.81c8.38.31,14.66,7,14.38,15.34-.27,8.27-7.17,14.95-15.18,14.71-8.41-.25-15.06-7.38-14.67-15.75.38-8.34,7.17-14.62,15.47-14.31Z"/>
      </g>
      <path class="cls-1" d="M347.43,145.71c-11.97,7.83-23.97-5.17-23.97-5.17"/>
    </g>
  </g>
</svg>