<?xml version="1.0" encoding="UTF-8"?>
<svg id="Layer_2" xmlns="http://www.w3.org/2000/svg" viewBox="0 0 177.03 114">
  <defs>
    <style>
      .cls-1 {
        fill: none;
      }

      .cls-1, .cls-2, .cls-3, .cls-4, .cls-5 {
        stroke: #000;
        stroke-miterlimit: 10;
      }

      .cls-2 {
        fill: gray;
      }

      .cls-3 {
        fill: #fff;
      }

      .cls-5 {
        fill: #f7931e;
      }
    </style>
  </defs>
  <g id="Layer_1-2" data-name="Layer_1">
    <g>
      <g>
        <path class="cls-2" d="M33.57,79.38S14.1,62.34.71,85.46c0,0,52.24,23.69,71.81,26.77,23.12,3.65,48.76-.1,63.29-18.26,29.21-36.51,17.16-36.69,31.64-26.77,17.25,11.81,11.83-84.13-32.86-27.99-8.99,11.3-97.31,44.53-101.01,40.16Z"/>
        <path class="cls-1" d="M176.24,59.19s-10.01,1.93-11.23-7.81"/>
        <path class="cls-1" d="M159.64,21.76c-4.37-27.57-12.89-16.62-12.89-16.62"/>
        <path class="cls-1" d="M168.19,25.36c10.21-16.35,7.69-25.69,5.62-24.8"/>
        <g>
          <circle class="cls-3" cx="164.4" cy="42.26" r="5.48"/>
          <circle class="cls-4" cx="165.62" cy="44.69" r="1.83"/>
        </g>
      </g>
      <path class="cls-5" d="M99.53,56.3c-2.01-6.59-8.99-10.31-15.58-8.3-8.24,2.51-12.89,11.23-10.37,19.47,3.15,10.29,12.12,13.09,23.6,10.52,10.7-2.39,20.01-13.98,16.94-27.99-3.6-16.44-21.94-25.16-38.03-20.25-20.12,6.14-26.75,24.63-20.62,44.75,7.67,25.15,36.42,25.65,48.68,20.69,14.77-5.97,38.63-29.98,30.43-55.98C124.92,8.6,92.59,1.03,71.3,7.57c-26.55,8.15-48.08,30.14-38.12,80.43l22.29-13.49"/>
    </g>
  </g>
</svg>