<?xml version="1.0" encoding="UTF-8"?>
<svg id="Layer_1" data-name="Layer 1" xmlns="http://www.w3.org/2000/svg" viewBox="0 0 1174.71 977.86">
  <defs>
    <style>
      .cls-1 {
        fill: #666;
      }

      .cls-1, .cls-2, .cls-3, .cls-4, .cls-5 {
        stroke-width: 0px;
      }

      .cls-6 {
        fill: none;
      }

      .cls-6, .cls-7 {
        stroke: #000;
        stroke-miterlimit: 10;
      }

      .cls-3, .cls-7 {
        fill: #fff;
      }

      .cls-4 {
        fill: #a7805a;
      }

      .cls-5 {
        fill: #ff9;
      }
    </style>
  </defs>
  <g>
    <g>
      <polygon class="cls-5" points="289.55 648.33 261.9 663.42 243.49 637.85 213.89 648.63 199.53 620.59 168.64 626.8 158.64 596.93 127.17 598.47 121.71 567.45 90.36 564.31 89.56 532.81 59.03 525.06 62.92 493.8 33.88 481.58 42.39 451.25 15.51 434.82 28.48 406.12 4.38 385.84 21.5 359.39 .67 335.76 21.5 312.12 4.38 285.68 28.48 265.4 15.51 236.69 42.39 220.26 33.88 189.93 62.92 177.71 59.03 146.45 89.57 138.7 90.37 107.21 121.71 104.07 127.17 73.04 158.64 74.58 168.65 44.71 199.53 50.93 213.89 22.89 243.49 33.66 261.9 8.1 289.55 23.19 311.58 .66 336.68 19.7 361.79 .66 383.81 23.19 411.47 8.1 429.87 33.66 459.48 22.89 473.84 50.93 504.72 44.71 514.73 74.59 546.2 73.04 551.66 104.07 583 107.21 583.8 138.7 614.34 146.45 610.45 177.72 639.49 189.93 630.98 220.26 657.86 236.69 644.88 265.4 668.99 285.68 651.87 312.12 672.7 335.76 651.87 359.39 668.99 385.84 644.88 406.12 657.85 434.83 630.97 451.26 639.49 481.59 610.45 493.8 614.34 525.06 583.8 532.82 583 564.31 551.65 567.45 546.19 598.48 514.73 596.93 504.72 626.8 473.84 620.59 459.48 648.63 429.87 637.85 411.47 663.42 383.81 648.33 361.79 670.85 336.68 651.81 311.58 670.85 289.55 648.33"/>
      <path class="cls-2" d="M361.74,1.33l21.45,21.94.53.54.66-.36,26.93-14.7,17.93,24.9.44.61.71-.26,28.83-10.49,13.99,27.31.35.67.74-.15,30.08-6.05,9.75,29.09.24.72.76-.04,30.65-1.5,5.32,30.22.13.75.75.08,30.53,3.06.78,30.67.02.76.73.19,29.74,7.55-3.79,30.45-.09.75.7.29,28.28,11.9-8.29,29.54-.2.73.65.39,26.18,16-12.64,27.96-.31.69.58.49,23.48,19.75-16.68,25.76-.41.64.5.57,20.29,23.02-20.29,23.02-.5.57.41.64,16.68,25.76-23.48,19.75-.58.49.31.69,12.63,27.96-26.18,16-.65.39.2.73,8.29,29.54-28.28,11.9-.7.29.09.75,3.79,30.45-29.74,7.55-.73.19-.02.76-.78,30.67-30.53,3.06-.75.08-.13.75-5.32,30.22-30.65-1.5-.76-.04-.24.72-9.75,29.09-30.08-6.05-.74-.15-.35.67-13.99,27.31-28.83-10.49-.71-.26-.44.61-17.93,24.9-26.93-14.7-.66-.36-.53.54-21.45,21.94-24.45-18.54-.6-.46-.6.46-24.45,18.54-21.45-21.94-.53-.54-.66.36-26.93,14.7-17.93-24.9-.44-.61-.71.26-28.83,10.49-13.99-27.31-.35-.67-.74.15-30.08,6.05-9.75-29.09-.24-.72-.76.04-30.65,1.5-5.32-30.22-.13-.75-.75-.08-30.53-3.06-.78-30.67-.02-.76-.73-.19-29.74-7.55,3.79-30.45.09-.75-.7-.29-28.28-11.9,8.29-29.54.2-.73-.65-.39-26.18-16,12.64-27.96.31-.69-.58-.49-23.48-19.75,16.68-25.76.41-.64-.5-.57-20.29-23.02,20.29-23.02.5-.57-.41-.64-16.68-25.76,23.48-19.75.58-.49-.31-.69-12.63-27.96,26.18-16,.65-.39-.2-.73-8.29-29.54,28.28-11.9.7-.29-.09-.75-3.79-30.45,29.74-7.55.73-.19.02-.76.78-30.67,30.53-3.06.75-.08.13-.75,5.32-30.22,30.65,1.5.76.04.24-.72,9.75-29.09,30.08,6.05.74.15.35-.67,13.99-27.31,28.83,10.49.71.26.44-.61,17.93-24.9,26.93,14.7.66.36.53-.54,21.45-21.94,24.45,18.54.6.46.6-.46,24.45-18.54M361.84,0l-25.15,19.07L311.53,0l-22.07,22.57-27.71-15.13-18.44,25.62-29.66-10.8-14.39,28.1-30.95-6.23-10.03,29.93-31.53-1.55-5.47,31.09-31.41,3.14-.8,31.56-30.6,7.77,3.89,31.33-29.1,12.24,8.53,30.39-26.93,16.46,13,28.77-24.16,20.32,17.16,26.5L0,335.76l20.87,23.68-17.16,26.5,24.16,20.32-13,28.77,26.93,16.46-8.53,30.39,29.1,12.24-3.89,31.32,30.6,7.77.8,31.56,31.41,3.14,5.47,31.09,31.53-1.55,10.03,29.93,30.95-6.23,14.39,28.1,29.66-10.8,18.44,25.62,27.71-15.12,22.07,22.57,25.15-19.07,25.15,19.07,22.07-22.57,27.71,15.13,18.44-25.62,29.66,10.8,14.39-28.1,30.95,6.23,10.03-29.93,31.53,1.55,5.47-31.09,31.41-3.14.8-31.56,30.6-7.77-3.89-31.32,29.1-12.24-8.53-30.39,26.93-16.46-13-28.77,24.16-20.32-17.16-26.5,20.87-23.68-20.87-23.68,17.16-26.5-24.16-20.32,13-28.77-26.93-16.46,8.53-30.39-29.1-12.24,3.89-31.32-30.6-7.77-.8-31.56-31.41-3.14-5.47-31.09-31.53,1.55-10.03-29.93-30.95,6.23-14.39-28.1-29.66,10.79-18.44-25.62-27.71,15.12L361.84,0h0Z"/>
    </g>
    <g>
      <circle class="cls-3" cx="336.68" cy="335.76" r="81.17"/>
      <path class="cls-2" d="M336.68,255.09c44.48,0,80.67,36.19,80.67,80.67s-36.19,80.67-80.67,80.67-80.67-36.19-80.67-80.67,36.19-80.67,80.67-80.67M336.68,254.09c-45.11,0-81.67,36.57-81.67,81.67s36.57,81.67,81.67,81.67,81.67-36.57,81.67-81.67-36.57-81.67-81.67-81.67h0Z"/>
    </g>
  </g>
  <g>
    <polygon class="cls-2" points="757.49 692.66 735.8 712.21 749.53 737.99 722.44 748.91 726.49 777.84 697.3 778.85 691.25 807.43 663.47 798.41 647.99 823.17 624.98 805.17 601.98 823.17 586.49 798.41 558.71 807.43 552.67 778.85 523.48 777.84 527.53 748.91 500.44 737.99 514.17 712.21 492.48 692.66 514.17 673.11 500.44 647.33 527.53 636.41 523.48 607.48 552.67 606.47 558.71 577.89 586.49 586.91 601.98 562.14 624.98 580.15 647.99 562.14 663.47 586.91 691.25 577.89 697.3 606.47 726.49 607.48 722.44 636.41 749.53 647.33 735.8 673.11 757.49 692.66"/>
    <polygon class="cls-6" points="757.49 692.66 735.8 712.21 749.53 737.99 722.44 748.91 726.49 777.84 697.3 778.85 691.25 807.43 663.47 798.41 647.99 823.17 624.98 805.17 601.98 823.17 586.49 798.41 558.71 807.43 552.67 778.85 523.48 777.84 527.53 748.91 500.44 737.99 514.17 712.21 492.48 692.66 514.17 673.11 500.44 647.33 527.53 636.41 523.48 607.48 552.67 606.47 558.71 577.89 586.49 586.91 601.98 562.14 624.98 580.15 647.99 562.14 663.47 586.91 691.25 577.89 697.3 606.47 726.49 607.48 722.44 636.41 749.53 647.33 735.8 673.11 757.49 692.66"/>
  </g>
  <g>
    <polygon class="cls-1" points="630.08 885.4 607.66 903.97 617.81 931.25 589.09 936.08 584.26 964.8 556.97 954.65 538.41 977.07 519.85 954.65 492.56 964.8 487.73 936.08 459.01 931.25 469.16 903.96 446.74 885.4 469.16 866.84 459.01 839.55 487.73 834.72 492.56 806.01 519.85 816.16 538.41 793.73 556.97 816.16 584.26 806.01 589.09 834.72 617.81 839.55 607.66 866.84 630.08 885.4"/>
    <polygon class="cls-6" points="630.08 885.4 607.66 903.97 617.81 931.25 589.09 936.08 584.26 964.8 556.97 954.65 538.41 977.07 519.85 954.65 492.56 964.8 487.73 936.08 459.01 931.25 469.16 903.96 446.74 885.4 469.16 866.84 459.01 839.55 487.73 834.72 492.56 806.01 519.85 816.16 538.41 793.73 556.97 816.16 584.26 806.01 589.09 834.72 617.81 839.55 607.66 866.84 630.08 885.4"/>
  </g>
  <g>
    <g>
      <polygon class="cls-1" points="1054.77 539.12 1033.23 560.96 1047.79 587.96 1020.95 602.83 1027.27 632.85 997.32 639.53 994.95 670.12 964.33 668.14 953.46 696.83 924.65 686.29 906.09 710.72 881.43 692.46 856.77 710.72 838.21 686.29 809.4 696.83 798.53 668.14 767.91 670.12 765.53 639.53 735.59 632.85 741.9 602.83 715.07 587.96 729.63 560.96 708.09 539.12 729.63 517.28 715.07 490.27 741.9 475.41 735.59 445.39 765.54 438.7 767.91 408.11 798.53 410.1 809.4 381.41 838.21 391.95 856.77 367.52 881.43 385.78 906.09 367.52 924.65 391.95 953.46 381.41 964.33 410.1 994.95 408.12 997.32 438.7 1027.27 445.39 1020.95 475.41 1047.79 490.27 1033.23 517.28 1054.77 539.12"/>
      <polygon class="cls-6" points="1054.77 539.12 1033.23 560.96 1047.79 587.96 1020.95 602.83 1027.27 632.85 997.32 639.53 994.95 670.12 964.33 668.14 953.46 696.83 924.65 686.29 906.09 710.72 881.43 692.46 856.77 710.72 838.21 686.29 809.4 696.83 798.53 668.14 767.91 670.12 765.53 639.53 735.59 632.85 741.9 602.83 715.07 587.96 729.63 560.96 708.09 539.12 729.63 517.28 715.07 490.27 741.9 475.41 735.59 445.39 765.54 438.7 767.91 408.11 798.53 410.1 809.4 381.41 838.21 391.95 856.77 367.52 881.43 385.78 906.09 367.52 924.65 391.95 953.46 381.41 964.33 410.1 994.95 408.12 997.32 438.7 1027.27 445.39 1020.95 475.41 1047.79 490.27 1033.23 517.28 1054.77 539.12"/>
    </g>
    <circle class="cls-7" cx="881.43" cy="539.12" r="40.84"/>
  </g>
  <g>
    <g>
      <polygon class="cls-4" points="1174.01 225.5 1152.47 247.34 1167.03 274.35 1140.19 289.21 1146.51 319.23 1116.56 325.92 1114.19 356.51 1083.57 354.53 1072.7 383.21 1043.89 372.67 1025.33 397.1 1000.67 378.84 976.01 397.1 957.45 372.67 928.64 383.21 917.76 354.52 887.15 356.5 884.77 325.92 854.83 319.23 861.14 289.21 834.31 274.35 848.87 247.34 827.33 225.5 848.87 203.66 834.31 176.66 861.14 161.79 854.83 131.77 884.78 125.09 887.15 94.5 917.77 96.48 928.64 67.79 957.45 78.33 976.01 53.9 1000.67 72.16 1025.33 53.9 1043.89 78.33 1072.7 67.79 1083.57 96.48 1114.19 94.5 1116.56 125.09 1146.51 131.77 1140.19 161.79 1167.03 176.66 1152.47 203.66 1174.01 225.5"/>
      <polygon class="cls-6" points="1174.01 225.5 1152.47 247.34 1167.03 274.35 1140.19 289.21 1146.51 319.23 1116.56 325.92 1114.19 356.51 1083.57 354.53 1072.7 383.21 1043.89 372.67 1025.33 397.1 1000.67 378.84 976.01 397.1 957.45 372.67 928.64 383.21 917.76 354.52 887.15 356.5 884.77 325.92 854.83 319.23 861.14 289.21 834.31 274.35 848.87 247.34 827.33 225.5 848.87 203.66 834.31 176.66 861.14 161.79 854.83 131.77 884.78 125.09 887.15 94.5 917.77 96.48 928.64 67.79 957.45 78.33 976.01 53.9 1000.67 72.16 1025.33 53.9 1043.89 78.33 1072.7 67.79 1083.57 96.48 1114.19 94.5 1116.56 125.09 1146.51 131.77 1140.19 161.79 1167.03 176.66 1152.47 203.66 1174.01 225.5"/>
    </g>
    <circle class="cls-7" cx="1000.67" cy="225.5" r="40.84"/>
  </g>
</svg>